<svg xmlns="http://www.w3.org/2000/svg" viewBox="0 0 64 64" role="img" aria-label="Cute baby favicon">
  <defs>
    <linearGradient id="bg" x1="10" y1="8" x2="54" y2="58" gradientUnits="userSpaceOnUse">
      <stop stop-color="#FFE7F1"/>
      <stop offset="0.55" stop-color="#FFF3BE"/>
      <stop offset="1" stop-color="#CDEFF4"/>
    </linearGradient>
    <linearGradient id="skin" x1="20" y1="15" x2="46" y2="50" gradientUnits="userSpaceOnUse">
      <stop stop-color="#FFE4CF"/>
      <stop offset="1" stop-color="#FFCBAE"/>
    </linearGradient>
  </defs>
  <circle cx="32" cy="32" r="30" fill="url(#bg)"/>
  <circle cx="32" cy="34" r="20" fill="url(#skin)" stroke="#7A5C55" stroke-width="2.5"/>
  <path d="M26 17c4-6 12-4 13 2-5-3-9-1-11 3" fill="none" stroke="#7A5C55" stroke-width="3" stroke-linecap="round"/>
  <circle cx="24" cy="31" r="2.4" fill="#3F3432"/>
  <circle cx="40" cy="31" r="2.4" fill="#3F3432"/>
  <circle cx="18.5" cy="38" r="4.2" fill="#FF9FB4" opacity="0.72"/>
  <circle cx="45.5" cy="38" r="4.2" fill="#FF9FB4" opacity="0.72"/>
  <path d="M28 38c2.5 2.2 5.5 2.2 8 0" fill="none" stroke="#7A5C55" stroke-width="2.2" stroke-linecap="round"/>
  <circle cx="32" cy="44" r="6.4" fill="#F9B8CC" stroke="#7A5C55" stroke-width="2"/>
  <circle cx="32" cy="44" r="2.2" fill="#FFF7FA"/>
  <path d="M19 23c-3 1-5 4-5 7M45 23c3 1 5 4 5 7" fill="none" stroke="#7A5C55" stroke-width="2.2" stroke-linecap="round"/>
  <path d="M13 14l2.4 2.1 3.1-3.5M48 13l2.1 2.5 3.5-3.1" fill="none" stroke="#FFFFFF" stroke-width="2.4" stroke-linecap="round" stroke-linejoin="round" opacity="0.9"/>
</svg>
